<svg width="118" height="118" viewBox="0 0 118 118" fill="none" xmlns="http://www.w3.org/2000/svg">
<g filter="url(#filter0_dd_48_52)">
<circle cx="59" cy="55" r="55" fill="white"/>
<path d="M72.4254 43.1969C70.2872 43.1968 68.1602 43.5048 66.11 44.1115C68.3989 48.3284 69.2636 53.1722 68.5751 57.9207C67.8867 62.6691 65.6819 67.0679 62.2895 70.4611L50.1758 82.5748H67.3083C70.2298 82.5748 73.1227 81.9994 75.8219 80.8815C78.5211 79.7635 80.9736 78.1248 83.0394 76.059C85.1053 73.9932 86.744 71.5407 87.862 68.8416C88.9801 66.1424 89.5555 63.2495 89.5555 60.328V43.1969H72.4254Z" fill="#009959"/>
<path d="M38.0625 39.0002L50.1735 26.8892L62.2845 39.0002C66.4559 43.1717 68.7994 48.8294 68.7994 54.7287C68.7994 60.628 66.4559 66.2857 62.2845 70.4572L50.1731 82.5685L38.0621 70.4575C33.8906 66.286 31.5471 60.6281 31.5471 54.7287C31.5471 48.8292 33.8906 43.1714 38.0621 38.9999L38.0625 39.0002Z" fill="#6EBD6A"/>
<path d="M59.8314 58.0115L54.7702 60.0312C53.2582 60.6328 51.9483 61.6519 50.9935 62.9697V58.9233C50.9888 57.5302 51.4041 56.168 52.1854 55.0146C52.9667 53.8612 54.0776 52.9702 55.3731 52.4578L60.4338 50.4381C60.6347 50.3578 60.7954 50.201 60.8806 50.0022C60.9659 49.8033 60.9686 49.5788 60.8883 49.3779C60.808 49.1771 60.6512 49.0164 60.4524 48.9311C60.2535 48.8459 60.029 48.8431 59.8281 48.9234L54.7702 50.9408C53.258 51.5422 51.9482 52.5614 50.9935 53.8793V49.8306C50.9886 48.4374 51.4039 47.0752 52.1853 45.9218C52.9666 44.7684 54.0775 43.8773 55.3731 43.3651C55.5739 43.2848 55.7347 43.128 55.8199 42.9292C55.9051 42.7303 55.9079 42.5058 55.8276 42.3049C55.7473 42.1041 55.5905 41.9434 55.3916 41.8581C55.1928 41.7729 54.9683 41.7701 54.7674 41.8504C53.2551 42.4518 51.9451 43.471 50.9903 44.7889V35.6613C50.9903 35.5542 50.9692 35.4482 50.9282 35.3493C50.8872 35.2503 50.8272 35.1605 50.7515 35.0848C50.6757 35.009 50.5859 34.949 50.4869 34.908C50.388 34.867 50.282 34.8459 50.1749 34.8459C50.0679 34.8459 49.9618 34.867 49.8629 34.908C49.764 34.949 49.6741 35.009 49.5984 35.0848C49.5227 35.1605 49.4626 35.2503 49.4216 35.3493C49.3807 35.4482 49.3596 35.5542 49.3596 35.6613V44.7889C48.4051 43.4708 47.0952 42.4516 45.5829 41.8504C45.382 41.7701 45.1575 41.7729 44.9587 41.8581C44.7599 41.9434 44.603 42.1041 44.5227 42.3049C44.4424 42.5058 44.4452 42.7303 44.5304 42.9292C44.6156 43.128 44.7764 43.2848 44.9772 43.3651C46.2727 43.8774 47.3837 44.7684 48.165 45.9218C48.9463 47.0753 49.3616 48.4375 49.3568 49.8306V53.8793C48.4023 52.5612 47.0924 51.542 45.5801 50.9408L40.5254 48.9211C40.3246 48.8408 40.1 48.8436 39.9012 48.9288C39.7024 49.014 39.5456 49.1747 39.4653 49.3756C39.3849 49.5765 39.3877 49.801 39.4729 49.9998C39.5582 50.1986 39.7189 50.3555 39.9198 50.4358L44.9819 52.4555C46.278 52.9678 47.3895 53.8591 48.171 55.0129C48.9526 56.1668 49.368 57.5296 49.3628 58.9233V62.972C48.4082 61.6542 47.0983 60.635 45.5862 60.0336L40.5254 58.0115C40.426 57.9717 40.3197 57.9519 40.2126 57.9533C40.1055 57.9546 39.9997 57.977 39.9012 58.0192C39.8028 58.0614 39.7136 58.1226 39.6388 58.1992C39.564 58.2759 39.505 58.3665 39.4653 58.466C39.4255 58.5654 39.4057 58.6718 39.407 58.7789C39.4083 58.886 39.4307 58.9918 39.4729 59.0902C39.5151 59.1887 39.5763 59.2778 39.653 59.3526C39.7297 59.4274 39.8203 59.4864 39.9198 59.5262L44.9819 61.5459C46.2774 62.0582 47.3883 62.9493 48.1696 64.1027C48.9508 65.2561 49.3662 66.6182 49.3614 68.0113V72.9383C49.3614 73.1546 49.4473 73.362 49.6003 73.5149C49.7532 73.6678 49.9605 73.7537 50.1768 73.7537C50.393 73.7537 50.6004 73.6678 50.7533 73.5149C50.9062 73.362 50.9921 73.1546 50.9921 72.9383V68.0113C50.9874 66.6182 51.4027 65.2561 52.184 64.1027C52.9653 62.9493 54.0762 62.0582 55.3717 61.5459L60.4324 59.5262C60.5319 59.4864 60.6225 59.4274 60.6992 59.3526C60.7759 59.2778 60.837 59.1887 60.8792 59.0902C60.9214 58.9918 60.9438 58.886 60.9452 58.7789C60.9465 58.6718 60.9267 58.5654 60.8869 58.466C60.8471 58.3665 60.7882 58.2759 60.7134 58.1992C60.6386 58.1226 60.5494 58.0614 60.451 58.0192C60.3525 57.977 60.2467 57.9546 60.1396 57.9533C60.0325 57.9519 59.9262 57.9717 59.8267 58.0115H59.8314Z" fill="#009959"/>
<path d="M83.9274 48.8251C83.7744 48.6723 83.567 48.5865 83.3508 48.5865C83.1346 48.5865 82.9272 48.6723 82.7742 48.8251L76.32 55.2798C76.5768 53.6727 76.3712 52.0256 75.7273 50.5308C75.642 50.3321 75.4812 50.1753 75.2803 50.0951C75.0795 50.0149 74.855 50.0178 74.6562 50.1031C74.4574 50.1884 74.3007 50.3492 74.2205 50.5501C74.1403 50.751 74.1432 50.9755 74.2285 51.1742C74.7828 52.4526 74.9387 53.8685 74.6758 55.2369C74.4129 56.6053 73.7434 57.8625 72.7548 58.8445L70.0213 61.579C69.9457 61.6547 69.8857 61.7447 69.8448 61.8436C69.8039 61.9426 69.7829 62.0486 69.783 62.1557C69.783 62.2628 69.8042 62.3688 69.8453 62.4677C69.8863 62.5666 69.9465 62.6564 70.0222 62.7321C70.098 62.8077 70.188 62.8677 70.2869 62.9086C70.3859 62.9495 70.4919 62.9705 70.599 62.9704C70.7061 62.9704 70.8121 62.9492 70.911 62.9081C71.0099 62.8671 71.0997 62.8069 71.1754 62.7312L73.9112 59.9949C74.8933 59.0076 76.15 58.3392 77.5176 58.0768C78.8852 57.8145 80.3001 57.9703 81.5778 58.524C81.6762 58.5667 81.7822 58.5896 81.8895 58.5913C81.9968 58.593 82.1034 58.5735 82.2032 58.5339C82.3029 58.4943 82.3939 58.4354 82.4709 58.3605C82.5478 58.2857 82.6092 58.1964 82.6516 58.0978C82.6939 57.9991 82.7164 57.8931 82.7177 57.7858C82.7189 57.6784 82.699 57.5719 82.659 57.4723C82.619 57.3727 82.5598 57.282 82.4846 57.2053C82.4095 57.1286 82.32 57.0676 82.2212 57.0256C80.7268 56.3814 79.08 56.1759 77.4731 56.433L83.9274 49.9778C84.08 49.8248 84.1658 49.6176 84.1658 49.4014C84.1658 49.1853 84.08 48.9781 83.9274 48.8251Z" fill="#6EBD6A"/>
</g>
<defs>
<filter id="filter0_dd_48_52" x="0" y="0" width="118" height="118" filterUnits="userSpaceOnUse" color-interpolation-filters="sRGB">
<feFlood flood-opacity="0" result="BackgroundImageFix"/>
<feColorMatrix in="SourceAlpha" type="matrix" values="0 0 0 0 0 0 0 0 0 0 0 0 0 0 0 0 0 0 127 0" result="hardAlpha"/>
<feOffset dy="4"/>
<feGaussianBlur stdDeviation="2"/>
<feComposite in2="hardAlpha" operator="out"/>
<feColorMatrix type="matrix" values="0 0 0 0 0 0 0 0 0 0 0 0 0 0 0 0 0 0 0.25 0"/>
<feBlend mode="normal" in2="BackgroundImageFix" result="effect1_dropShadow_48_52"/>
<feColorMatrix in="SourceAlpha" type="matrix" values="0 0 0 0 0 0 0 0 0 0 0 0 0 0 0 0 0 0 127 0" result="hardAlpha"/>
<feOffset dy="4"/>
<feGaussianBlur stdDeviation="2"/>
<feComposite in2="hardAlpha" operator="out"/>
<feColorMatrix type="matrix" values="0 0 0 0 0 0 0 0 0 0 0 0 0 0 0 0 0 0 0.25 0"/>
<feBlend mode="normal" in2="effect1_dropShadow_48_52" result="effect2_dropShadow_48_52"/>
<feBlend mode="normal" in="SourceGraphic" in2="effect2_dropShadow_48_52" result="shape"/>
</filter>
</defs>
</svg>
